<?xml version="1.0" standalone="no"?>
<!DOCTYPE svg PUBLIC "-//W3C//DTD SVG 20010904//EN"
 "http://www.w3.org/TR/2001/REC-SVG-20010904/DTD/svg10.dtd">
<svg version="1.0" xmlns="http://www.w3.org/2000/svg"
 width="1024.000000pt" height="1024.000000pt" viewBox="0 0 1024.000000 1024.000000"
 preserveAspectRatio="xMidYMid meet">
<metadata>
Created by potrace 1.16, written by Peter Selinger 2001-2019
</metadata>
<g transform="translate(0.000000,1024.000000) scale(0.100000,-0.100000)"
fill="#000000" stroke="none">
<path d="M0 5120 l0 -5120 5120 0 5120 0 0 5120 0 5120 -5120 0 -5120 0 0
-5120z m5515 4284 c507 -48 957 -185 1455 -442 152 -78 172 -94 59 -46 -554
235 -970 324 -1594 340 -673 18 -1394 -103 -1940 -326 -110 -45 -105 -46 30
-6 214 63 577 122 895 146 174 13 567 13 740 0 557 -41 1062 -184 1580 -446
644 -326 1128 -772 1431 -1319 185 -333 325 -774 373 -1170 23 -189 30 -442
16 -595 -10 -118 -56 -393 -77 -472 -5 -15 -8 66 -8 180 -2 527 -117 1022
-350 1497 -390 795 -999 1367 -1800 1687 -391 157 -769 228 -1213 228 -392 0
-711 -50 -1049 -164 -290 -98 -507 -203 -768 -375 -492 -323 -890 -771 -1160
-1306 -399 -789 -469 -1692 -200 -2560 169 -542 477 -1042 896 -1451 164 -160
299 -268 489 -392 417 -274 901 -459 1390 -533 136 -21 190 -24 440 -24 262 1
299 3 452 28 456 75 824 212 1203 449 153 96 260 171 379 266 36 29 66 50 66
47 0 -3 -44 -60 -97 -128 -364 -460 -885 -810 -1513 -1018 -538 -178 -977
-206 -1580 -103 -64 11 -359 114 -503 175 -127 54 -267 124 -382 189 -22 12
-60 34 -85 48 -146 83 -444 305 -599 447 -67 60 -278 271 -337 335 -52 57
-235 291 -294 376 -189 272 -338 546 -450 829 -144 363 -234 742 -272 1150
-15 168 -15 667 1 815 26 254 67 488 120 690 39 150 135 439 171 515 5 11 34
76 65 144 50 112 125 254 184 351 11 19 24 42 28 50 7 17 109 169 179 269 39
55 90 120 186 236 54 66 129 147 228 248 372 383 829 686 1335 885 393 155
912 262 1335 275 146 4 387 -4 545 -19z m-160 -2132 c161 -43 247 -86 382
-189 151 -115 222 -142 408 -153 193 -13 287 -45 374 -132 54 -54 82 -101 126
-214 39 -100 44 -123 16 -80 -28 42 -96 94 -171 130 l-65 31 -260 5 -260 5
-63 29 c-35 16 -114 70 -175 118 -194 154 -336 208 -549 208 -226 0 -390 -66
-598 -240 -128 -106 -208 -130 -435 -130 -88 0 -180 -5 -205 -11 -129 -30
-273 -143 -338 -266 l-33 -63 -116 0 c-106 0 -115 1 -108 18 4 9 15 40 26 67
85 222 275 412 484 486 46 16 98 23 225 29 166 8 251 24 315 60 16 9 82 54
145 100 157 114 293 175 453 206 100 19 329 11 422 -14z"/>
</g>
</svg>
